PathFileType	4	(X/Y/Z)	/tmp/tmp8ooq684z//results/MarkerData/rotated_Sprint_08100001.trc
DataRate	CameraRate	NumFrames	NumMarkers	Units	OrigDataRate	OrigDataStartFrame	OrigNumFrames
200	200	9	46	m	200	1024	1171
Frame#	Time	C7			L.ASIS			L.PSIS			L_5meta			L_Shoulder			L_ankle			L_calc			L_elbow_lat			L_elbow_med			L_forearm			L_humerus			L_knee			L_sh2			L_sh3			L_shank_antsup			L_thigh1			L_thigh2			L_thigh3			L_thigh4			L_toe			L_wrist_radius			L_wrist_ulna			R_Shoulder			R_elbow_lat			R_elbow_med			R_forearm			R_humerus			R_wrist_radius			R_wrist_ulna			Sternum			r.ASIS			r.PSIS			r_5meta			r_ankle			r_calc			r_knee			r_sh2			r_sh3			r_sh4			r_shank_antsup			r_thigh1			r_thigh2			r_thigh3			r_thigh4			r_thigh5			r_toe		
		X1	Y1	Z1	X2	Y2	Z2	X3	Y3	Z3	X4	Y4	Z4	X5	Y5	Z5	X6	Y6	Z6	X7	Y7	Z7	X8	Y8	Z8	X9	Y9	Z9	X10	Y10	Z10	X11	Y11	Z11	X12	Y12	Z12	X13	Y13	Z13	X14	Y14	Z14	X15	Y15	Z15	X16	Y16	Z16	X17	Y17	Z17	X18	Y18	Z18	X19	Y19	Z19	X20	Y20	Z20	X21	Y21	Z21	X22	Y22	Z22	X23	Y23	Z23	X24	Y24	Z24	X25	Y25	Z25	X26	Y26	Z26	X27	Y27	Z27	X28	Y28	Z28	X29	Y29	Z29	X30	Y30	Z30	X31	Y31	Z31	X32	Y32	Z32	X33	Y33	Z33	X34	Y34	Z34	X35	Y35	Z35	X36	Y36	Z36	X37	Y37	Z37	X38	Y38	Z38	X39	Y39	Z39	X40	Y40	Z40	X41	Y41	Z41	X42	Y42	Z42	X43	Y43	Z43	X44	Y44	Z44	X45	Y45	Z45	X46	Y46	Z46

1025	5.12	0.795755	1.54469	-0.307877	0.87705	0.994801	-0.427872	0.688354	1.08572	-0.346382	0.0126705	0.312793	-0.337874	0.914048	1.5204	-0.465946	0.105027	0.452983	-0.358017	0.0935061	0.521433	-0.313415	0.860492	1.21418	-0.641468	0.808278	1.15878	-0.573689	0.979319	1.24929	-0.531204	0.920267	1.29147	-0.575207	0.511934	0.580467	-0.418131	0.382823	0.595367	-0.429751	0.270921	0.557717	-0.397933	0.405629	0.509495	-0.411858	0.724674	0.704644	-0.447558	0.636548	0.601303	-0.414558	0.633813	0.777292	-0.474327	0.551496	0.673028	-0.429244	0.0354476	0.289921	-0.266095	1.01392	1.30625	-0.435255	1.04869	1.24828	-0.456125	0.824924	1.53426	-0.100719	0.515337	1.46863	-0.0351632	0.507685	1.44861	-0.110178	0.555901	1.29847	-0.00821848	0.651332	1.4348	-0.0346904	0.568754	1.1787	-0.0102546	0.517702	1.18003	0.00420773	0.950591	1.44532	-0.256398	0.897001	1.0061	-0.167548	0.69071	1.07208	-0.237322	1.23387	0.187231	-0.15276	1.11797	0.265975	-0.180288	1.04156	0.231791	-0.240516	1.14664	0.718769	-0.175719	1.16697	0.483891	-0.162487	1.10466	0.607077	-0.143998	1.08611	0.493064	-0.158151	1.17734	0.603237	-0.161435	1.03095	0.916534	-0.147729	1.12168	0.84996	-0.169324	1.12418	0.794404	-0.150849	0.975818	0.826302	-0.109123	1.067	0.760852	-0.146456	1.27584	0.216507	-0.213101
1026	5.125	0.798109	1.54805	-0.306839	0.876418	0.997772	-0.428352	0.6876	1.08774	-0.345663	-1.2843e-05	0.345839	-0.332363	0.915084	1.52163	-0.466554	0.104081	0.476655	-0.357953	0.0994683	0.547129	-0.314977	0.85557	1.21648	-0.639611	0.801262	1.16283	-0.572711	0.97808	1.24226	-0.530989	0.917376	1.29152	-0.574131	0.516911	0.578129	-0.420458	0.388822	0.600454	-0.432622	0.275202	0.569867	-0.399576	0.406892	0.514381	-0.413208	0.729065	0.704524	-0.447236	0.642395	0.599453	-0.416312	0.636982	0.775603	-0.474846	0.556014	0.669661	-0.43199	0.0219935	0.322917	-0.259603	1.01851	1.29521	-0.433866	1.04875	1.23535	-0.456784	0.826492	1.53476	-0.0994229	0.517027	1.46368	-0.0355767	0.509672	1.44383	-0.111057	0.558705	1.29317	-0.0100223	0.652733	1.43141	-0.0349217	0.573133	1.17388	-0.0128197	0.521834	1.17453	0.0011266	0.951266	1.44683	-0.256284	0.89447	1.00742	-0.166869	0.689923	1.0738	-0.237343	1.2609	0.178529	-0.160323	1.14155	0.252159	-0.183805	1.06481	0.217055	-0.242437	1.13954	0.708431	-0.17476	1.17391	0.472097	-0.163358	1.10312	0.590073	-0.141346	1.09264	0.475236	-0.157614	1.17538	0.591817	-0.160617	1.03004	0.911174	-0.147228	1.11841	0.841715	-0.169246	1.11938	0.786155	-0.150603	0.972696	0.823064	-0.107364	1.0613	0.754271	-0.144426	1.29971	0.212297	-0.220434
1027	5.13	0.800747	1.5515	-0.305862	0.876092	1.00015	-0.428546	0.687001	1.08903	-0.344737	-0.00926628	0.379796	-0.327586	0.916006	1.52262	-0.467164	0.10598	0.500179	-0.357971	0.108324	0.572033	-0.316605	0.84973	1.2188	-0.637469	0.793931	1.16686	-0.571017	0.976118	1.23422	-0.53081	0.913742	1.29146	-0.573191	0.522312	0.576616	-0.42262	0.39635	0.605337	-0.435098	0.281253	0.581627	-0.401801	0.409822	0.518821	-0.414292	0.7336	0.704624	-0.447761	0.648517	0.597894	-0.417749	0.640102	0.773968	-0.475753	0.560837	0.666244	-0.434597	0.01231	0.356705	-0.254358	1.02223	1.28234	-0.432797	1.04789	1.22114	-0.45816	0.82812	1.5351	-0.0983385	0.518808	1.4572	-0.035328	0.511517	1.43734	-0.111814	0.562214	1.28678	-0.0114371	0.654538	1.42733	-0.0349936	0.578493	1.16801	-0.0152186	0.527027	1.16788	-0.00170146	0.951884	1.44818	-0.256375	0.892079	1.00889	-0.166254	0.689006	1.07501	-0.23737	1.28464	0.17115	-0.167501	1.1626	0.240292	-0.187528	1.0856	0.204497	-0.244833	1.13228	0.696523	-0.173298	1.17968	0.460202	-0.164674	1.10143	0.572332	-0.139001	1.09848	0.457507	-0.15729	1.17286	0.579492	-0.159406	1.0292	0.904522	-0.146504	1.11463	0.831564	-0.169475	1.11391	0.776208	-0.150748	0.969105	0.818946	-0.105741	1.05465	0.74623	-0.143058	1.32051	0.208615	-0.227462
1028	5.135	0.803418	1.55489	-0.304835	0.87616	1.00217	-0.428461	0.686445	1.0899	-0.343891	-0.0143098	0.413919	-0.323792	0.917116	1.52342	-0.467373	0.110455	0.523505	-0.357993	0.118871	0.596018	-0.318362	0.843272	1.22099	-0.635083	0.786237	1.17078	-0.568831	0.973287	1.22537	-0.530819	0.909285	1.29125	-0.572314	0.528345	0.575364	-0.424432	0.405335	0.609894	-0.43771	0.288883	0.593113	-0.404657	0.413985	0.522731	-0.415055	0.738149	0.704874	-0.449012	0.654865	0.596531	-0.418968	0.643573	0.772392	-0.47703	0.56579	0.663048	-0.437132	0.00596672	0.39085	-0.251154	1.02468	1.2678	-0.432248	1.04587	1.20587	-0.460439	0.829711	1.53517	-0.0974615	0.520767	1.44941	-0.0346876	0.513415	1.42937	-0.112374	0.566493	1.27942	-0.0126869	0.656835	1.42255	-0.0347761	0.584847	1.16126	-0.0174858	0.533321	1.16019	-0.00429644	0.952401	1.44936	-0.256674	0.889803	1.01016	-0.165691	0.688014	1.0758	-0.237578	1.30473	0.165489	-0.17409	1.17986	0.23066	-0.191003	1.10332	0.193358	-0.247705	1.12489	0.683504	-0.171521	1.18446	0.448492	-0.166558	1.10016	0.554825	-0.136681	1.1035	0.440807	-0.157175	1.17044	0.566792	-0.158352	1.02835	0.896553	-0.145624	1.11059	0.819659	-0.169715	1.10783	0.764859	-0.1507	0.964929	0.813825	-0.104327	1.04732	0.73747	-0.14219	1.33815	0.205931	-0.233486
1029	5.14	0.805978	1.55816	-0.303734	0.876362	1.00389	-0.428275	0.685926	1.09047	-0.343098	-0.0151651	0.447443	-0.321233	0.91836	1.5241	-0.467233	0.117126	0.5468	-0.358083	0.130452	0.618941	-0.320047	0.836337	1.22294	-0.632507	0.778295	1.17449	-0.566197	0.969241	1.21563	-0.531155	0.903738	1.29063	-0.571034	0.534983	0.573805	-0.426146	0.415652	0.614713	-0.440727	0.297937	0.604147	-0.407487	0.419091	0.526495	-0.415658	0.742701	0.705257	-0.450451	0.661362	0.595059	-0.420954	0.647166	0.770837	-0.478898	0.571066	0.660236	-0.439573	0.00350585	0.424363	-0.249157	1.02562	1.25187	-0.432338	1.04239	1.18968	-0.46387	0.83125	1.53491	-0.096697	0.522903	1.4406	-0.033711	0.515637	1.42032	-0.112522	0.571617	1.27119	-0.0136308	0.659536	1.41713	-0.0343679	0.592218	1.15364	-0.0196171	0.54077	1.15168	-0.00651114	0.952801	1.45028	-0.257124	0.887813	1.01132	-0.165188	0.687013	1.07621	-0.237926	1.32073	0.161372	-0.17984	1.19264	0.22278	-0.193975	1.11767	0.183025	-0.250897	1.1171	0.669872	-0.169421	1.18798	0.437631	-0.168973	1.09969	0.539009	-0.13376	1.10727	0.42617	-0.157394	1.1683	0.554714	-0.158471	1.02747	0.88753	-0.144684	1.10599	0.806655	-0.169368	1.10119	0.752649	-0.149452	0.960384	0.807903	-0.102795	1.03924	0.728044	-0.141437	1.35214	0.20424	-0.238288
1030	5.145	0.808241	1.5611	-0.302595	0.876674	1.00543	-0.428046	0.685508	1.09077	-0.342323	-0.0126054	0.479909	-0.32014	0.91945	1.52462	-0.466978	0.125623	0.570272	-0.358329	0.144149	0.640995	-0.321075	0.829116	1.22463	-0.629828	0.770331	1.17789	-0.563232	0.964249	1.20532	-0.531951	0.897914	1.28973	-0.569579	0.541945	0.572401	-0.428216	0.426976	0.619582	-0.443999	0.308341	0.614613	-0.409978	0.425114	0.530085	-0.416225	0.747239	0.705644	-0.451968	0.667775	0.593726	-0.423478	0.650902	0.769317	-0.481311	0.576664	0.657446	-0.442146	0.00536968	0.456674	-0.246827	1.02515	1.23476	-0.43316	1.03741	1.1728	-0.468427	0.832862	1.53427	-0.0959657	0.525317	1.43091	-0.0325078	0.518204	1.41047	-0.112065	0.577619	1.2622	-0.0141836	0.66257	1.41106	-0.033748	0.600598	1.14521	-0.0216122	0.549416	1.14254	-0.00828154	0.953153	1.45087	-0.257603	0.886387	1.01256	-0.164875	0.686054	1.0763	-0.238228	1.33237	0.157636	-0.184317	1.20141	0.215597	-0.196654	1.1285	0.173615	-0.254297	1.1089	0.656449	-0.167259	1.18948	0.428449	-0.171557	1.10022	0.52639	-0.129842	1.10926	0.414809	-0.157026	1.16637	0.544562	-0.159525	1.02639	0.877792	-0.143338	1.10074	0.79302	-0.168374	1.09374	0.73958	-0.147455	0.955459	0.801408	-0.101266	1.03046	0.718022	-0.140326	1.36215	0.202647	-0.241951
1031	5.15	0.810259	1.56356	-0.301487	0.877068	1.00677	-0.427798	0.685384	1.09072	-0.341722	-0.00677085	0.510677	-0.31998	0.920398	1.5249	-0.466627	0.135831	0.593534	-0.358754	0.158758	0.662866	-0.32174	0.821698	1.22605	-0.627111	0.762261	1.18105	-0.560084	0.95831	1.19465	-0.533225	0.89189	1.28887	-0.568145	0.549501	0.570691	-0.430428	0.438336	0.621362	-0.447194	0.319995	0.624834	-0.412496	0.431835	0.533458	-0.417003	0.75194	0.705981	-0.453658	0.674286	0.592218	-0.426294	0.654784	0.767824	-0.483656	0.582532	0.654539	-0.445026	0.0107582	0.487305	-0.244947	1.0233	1.21675	-0.434783	1.03112	1.15596	-0.473004	0.834708	1.53317	-0.0951723	0.528044	1.42036	-0.0311598	0.521138	1.39981	-0.111193	0.584474	1.25242	-0.0146226	0.665898	1.40448	-0.0330955	0.610175	1.13641	-0.0233125	0.559036	1.13267	-0.00988209	0.95356	1.45105	-0.258079	0.885602	1.01412	-0.164805	0.685082	1.07625	-0.238541	1.3397	0.152848	-0.187809	1.20682	0.208435	-0.198953	1.13564	0.165474	-0.257826	1.10049	0.643928	-0.165383	1.1887	0.421256	-0.173849	1.10063	0.517239	-0.126904	1.1091	0.406422	-0.155038	1.16365	0.536693	-0.161462	1.02479	0.867583	-0.141688	1.09489	0.779228	-0.166734	1.08557	0.726348	-0.144727	0.949997	0.794661	-0.100128	1.02119	0.707786	-0.1388	1.3685	0.199959	-0.244442
1032	5.155	0.811971	1.56559	-0.300162	0.877477	1.00809	-0.427544	0.685083	1.09063	-0.341328	0.00196105	0.539491	-0.320713	0.921134	1.52492	-0.466153	0.147866	0.616053	-0.359377	0.174289	0.684291	-0.322126	0.814114	1.22716	-0.624347	0.754044	1.18407	-0.556779	0.951327	1.18381	-0.53492	0.884314	1.28793	-0.566719	0.557719	0.568727	-0.433709	0.450316	0.622425	-0.450186	0.332838	0.634696	-0.415078	0.439325	0.536795	-0.418144	0.757078	0.705784	-0.455026	0.681232	0.590279	-0.429266	0.658968	0.766157	-0.485356	0.588733	0.651489	-0.447994	0.0186628	0.515866	-0.244851	1.02005	1.19813	-0.437204	1.02354	1.13913	-0.477722	0.836769	1.53154	-0.0942175	0.531182	1.40893	-0.029607	0.524488	1.38839	-0.109933	0.592187	1.24208	-0.01486	0.669584	1.39737	-0.0321746	0.620831	1.12718	-0.0248636	0.569716	1.12212	-0.011227	0.954033	1.45082	-0.258645	0.885279	1.01605	-0.165041	0.684099	1.07608	-0.238909	1.34272	0.146009	-0.190419	1.20896	0.201205	-0.200674	1.13901	0.158648	-0.261549	1.09196	0.632374	-0.163734	1.18551	0.415525	-0.175271	1.09769	0.510358	-0.126388	1.10656	0.399685	-0.152992	1.15896	0.530577	-0.163423	1.02233	0.857239	-0.139884	1.0883	0.765489	-0.164717	1.07683	0.713313	-0.141699	0.943989	0.787827	-0.0988336	1.01147	0.697752	-0.136934	1.37129	0.195185	-0.24553
1033	5.16	0.81339	1.56723	-0.298545	0.877814	1.00934	-0.427421	0.68467	1.09031	-0.341109	0.0130547	0.566572	-0.322347	0.921502	1.5247	-0.465595	0.161741	0.637671	-0.360176	0.191109	0.704624	-0.322149	0.806414	1.22791	-0.62156	0.745897	1.18686	-0.553268	0.943435	1.17285	-0.536996	0.876742	1.28704	-0.565098	0.566565	0.566206	-0.437356	0.462906	0.624044	-0.45273	0.346803	0.644029	-0.417396	0.447459	0.540004	-0.419641	0.762671	0.705119	-0.45623	0.688806	0.588027	-0.43219	0.663611	0.764245	-0.486312	0.595328	0.648008	-0.450948	0.0286967	0.542315	-0.246178	1.01541	1.1791	-0.440449	1.01466	1.12208	-0.48318	0.838936	1.52938	-0.0929514	0.534832	1.39677	-0.0277317	0.528352	1.37617	-0.108305	0.600884	1.23123	-0.0148099	0.673708	1.3897	-0.0308768	0.632626	1.11753	-0.0263461	0.58161	1.11107	-0.0122665	0.954444	1.45021	-0.259322	0.885081	1.01808	-0.165534	0.683207	1.0759	-0.239509	1.34138	0.136887	-0.192262	1.20738	0.193933	-0.201884	1.13861	0.153119	-0.265384	1.08308	0.621748	-0.162248	1.18013	0.41036	-0.175259	1.0893	0.504089	-0.12869	1.10128	0.392967	-0.15339	1.15125	0.525218	-0.164493	1.01906	0.846995	-0.137954	1.08107	0.751988	-0.162618	1.0678	0.700851	-0.138133	0.937545	0.781174	-0.0973914	1.00145	0.688185	-0.135193	1.37065	0.188034	-0.245082
